<svg xmlns="http://www.w3.org/2000/svg" width="409.7" height="98.9" viewBox="0 0 409.7 98.9"><path d="M52.5-25.3l-21-.1L27-8.5A97.047,97.047,0,0,1,24.1.9a45.9,45.9,0,0,1-3.7,7.5Q15.6,16,6.2,16V14.8q7.5,0,11.7-5.05T24.6-4.1l1-2.1-.2-.1Q22,1.3,14.6,1.3A10.8,10.8,0,0,1,6.5-2a11.442,11.442,0,0,1-3.2-8.3q0-16.3,27.2-16.3l10-37.8-3.1-.1h-.8a14.456,14.456,0,0,0-8.9,2.55,8.031,8.031,0,0,0-3.4,6.75,7.893,7.893,0,0,0,.6,3.3l-.8.6Q23-52.5,23-55.45a8.88,8.88,0,0,1,2.1-5.6,10.108,10.108,0,0,1,5.4-3.55q.9-.2,2.3-.4v-.2l-2.3.1q-9.6-1.2-15.6-5.45T8.9-82.8l1.2-.1a13.7,13.7,0,0,0,2.3,7.95,15.537,15.537,0,0,0,6.3,5.25,45.892,45.892,0,0,0,18,4l17.2.8v54.2q0,6-2.2,8.95T44.2,1.2A14.414,14.414,0,0,1,39.7.6l.2-1a18.193,18.193,0,0,0,4,.5q5,0,6.8-2.6t1.8-8.2ZM36.6-26.6l15.9.1V-63.8l-10.7-.5-10,37.7ZM4.7-10.3A10.436,10.436,0,0,0,7.5-2.9a9.291,9.291,0,0,0,7.1,3q6.9,0,10.2-7.3a56.086,56.086,0,0,0,3.1-9.6l2.3-8.6Q4.7-25.2,4.7-10.3Zm51.8-.4V-60.5q0-6,2.2-8.95t7.5-2.95a14.414,14.414,0,0,1,4.5.6l-.2,1a18.193,18.193,0,0,0-4-.5q-5,0-6.8,2.6t-1.8,8.2v49.8q0,5.6,1.8,8.2T66.5.1a18.193,18.193,0,0,0,4-.5l.2,1a14.414,14.414,0,0,1-4.5.6q-5.3,0-7.5-2.95T56.5-10.7Zm27.3-41v20.1a39.985,39.985,0,0,1,8.95-10.3,41.242,41.242,0,0,1,10.45-6.6,17.468,17.468,0,0,1,7.9,8.6,32.734,32.734,0,0,1,2.6,13.5A36.51,36.51,0,0,1,110.15-11,31.418,31.418,0,0,1,100,1.5,41.177,41.177,0,0,1,82.5-1.9V-51.7q0-8.3,1.15-12.45a12.593,12.593,0,0,1,3.3-6.1A12.269,12.269,0,0,1,92.5-73l.2,1A10.326,10.326,0,0,0,85-64.2,53.113,53.113,0,0,0,83.8-51.7ZM99.7.4a31.37,31.37,0,0,0,9.35-12.1,35.531,35.531,0,0,0,3.25-14.55,33.22,33.22,0,0,0-2.3-12.8,15.386,15.386,0,0,0-7-8.05,38.17,38.17,0,0,0-10.45,6.85A36.37,36.37,0,0,0,83.8-29.6v27Q90.3.4,99.7.4Zm46.6.9q-10.2,0-14.85-6.85T126.8-23.9q0-13.7,8.1-23.5a30.328,30.328,0,0,1,6.5-.7q10.3,0,14.9,5.95t4.6,17.25q0,15.7-8.1,25.5A30.328,30.328,0,0,1,146.3,1.3Zm.3-1.1a25.742,25.742,0,0,0,5.6-.6q7.4-9.4,7.4-24.4,0-10.9-4.3-16.55T141.1-47a25.741,25.741,0,0,0-5.6.6q-7.4,9.1-7.4,22.4Q128.1.2,146.6.2Zm62.7-40.5v27.1Q209.3.1,217.9.1a7.572,7.572,0,0,0,3.9-.8l.6.7a7.69,7.69,0,0,1-4.8,1.2q-9.6,0-9.6-14.4v-2.6a42.07,42.07,0,0,1-8.85,10.35A44.057,44.057,0,0,1,188.3,1.5Q180-2.2,180-14.2v-.9l.5-20.9v-1.4a16.323,16.323,0,0,0-1.35-7.45q-1.35-2.55-6.25-2.55a7.572,7.572,0,0,0-3.9.8l-.6-.7a7.69,7.69,0,0,1,4.8-1.2q5.4,0,7,2.85t1.6,8.35V-36l-.5,20.9v1.2q0,10.6,7.1,14.2a41.716,41.716,0,0,0,10.95-7.45A46.5,46.5,0,0,0,208-17.8V-40.3q0-6.8-8.6-6.8a18.193,18.193,0,0,0-4,.5l-.2-.9a13.528,13.528,0,0,1,4.8-.7,12.042,12.042,0,0,1,5.55,1.3A5.373,5.373,0,0,1,208.6-43a5.362,5.362,0,0,1,3.1-3.9,12.348,12.348,0,0,1,5.6-1.3,13.528,13.528,0,0,1,4.8.7l-.2.9a18.193,18.193,0,0,0-4-.5Q209.3-47.1,209.3-40.3Zm17.1-5.6V-47h9.9l.3-11.5h1.3L237.6-47h16.1v1.1H237.6L237-15.1v.6Q237-3.3,244.1.3a33.391,33.391,0,0,0,10.6-7.7l.8.7A33.689,33.689,0,0,1,244,1.5q-8.3-3.7-8.3-15.7v-.9l.6-30.8Zm55.1,28a14.185,14.185,0,0,0-1.9,7.55,10.5,10.5,0,0,0,2.8,7.45,8.644,8.644,0,0,0,6.5,3,11.2,11.2,0,0,0,5.9-1.35,10.7,10.7,0,0,0,3.7-4.05,44.789,44.789,0,0,0,3.7-11.5l1.8-8.6Q286.3-25.4,281.5-17.9Zm71.6,7.2q0,6-2.2,8.95T343.4,1.2a14.414,14.414,0,0,1-4.5-.6l.2-1a18.193,18.193,0,0,0,4,.5q5,0,6.8-2.6t1.8-8.2V-60.3a19.116,19.116,0,0,1,.3-2.3h-.2a6.885,6.885,0,0,0-.3,1.15,9.272,9.272,0,0,1-.4,1.45l-6.3,15.9L327.5-2.6l-1.7.3a15.05,15.05,0,0,0,.3-3.3q0-9.2-5.8-27.3l-3.1-9.7q-3.7-11.7-4.7-16.6L301.9-8.5q-2.4,10.7-6.4,17.1Q290.7,16,281.1,16V14.8q7.5,0,11.7-5.05T299.5-4.1l1-2.1-.2-.1q-3.4,7.6-10.8,7.6A10.8,10.8,0,0,1,281.4-2a11.442,11.442,0,0,1-3.2-8.3q0-16.3,26.1-16.3l7.9-37.7-3.8-.2h-1.2a13.719,13.719,0,0,0-8.55,2.55,8.07,8.07,0,0,0-3.35,6.75,7.893,7.893,0,0,0,.6,3.3l-.8.6q-1.1-1.2-1.1-4.15a8.88,8.88,0,0,1,2.1-5.6,10.108,10.108,0,0,1,5.4-3.55q.9-.2,2.3-.4v-.2l-2.3.1q-9.6-1.2-15.6-5.45t-6-12.25l1.2-.1a13.7,13.7,0,0,0,2.3,7.95,15.537,15.537,0,0,0,6.3,5.25,45.892,45.892,0,0,0,18,4l5.8.3v2q0,4.2,5.1,20.4l3.1,9.7q5.7,17.8,5.7,27.4v.4l1.1-2.6a12.292,12.292,0,0,0,.6-4.5q0-8-6.1-27.1l-3.1-9.7q-4.7-14-4.3-15.9h1.3q0,1.6,4.4,15.5l3.1,9.7q5.9,18.5,5.9,27.1v.4l13.3-31.9q6.9-17,8.3-21.7l1.2.1Zm2.6,0v-53q0-6,2.2-8.95t7.5-2.95a14.414,14.414,0,0,1,4.5.6l-.2,1a18.193,18.193,0,0,0-4-.5q-5,0-6.8,2.6t-1.8,8.2v53q0,5.6,1.8,8.2T365.7.1a18.193,18.193,0,0,0,4-.5l.2,1a14.414,14.414,0,0,1-4.5.6q-5.3,0-7.5-2.95T355.7-10.7ZM392.2,1.5a19.909,19.909,0,0,1-10.4-8.6A25.887,25.887,0,0,1,378-20.9a37.546,37.546,0,0,1,3.3-15.15,34.157,34.157,0,0,1,9-12.45q17.3,0,17.3,11.8a21.043,21.043,0,0,1-1.4,7.5q2.8-.1,6.8-.1v1h-1.9a203.888,203.888,0,0,0-31.4,2.7,42.854,42.854,0,0,0-.3,4.9,24.582,24.582,0,0,0,3.4,12.75A18.221,18.221,0,0,0,392.4.1a33.705,33.705,0,0,0,7.5-4.35,30.644,30.644,0,0,0,6.2-6.05l.9.6a34.2,34.2,0,0,1-6.65,6.45A35.287,35.287,0,0,1,392.2,1.5Zm14.1-38.2q0-10.7-15.6-10.7-8.5,7.3-10.8,20.6a210.523,210.523,0,0,1,25.2-2.4A25.474,25.474,0,0,0,406.3-36.7Z" transform="translate(-3.3 82.9)" fill="#324d67"/></svg>