<svg xmlns="http://www.w3.org/2000/svg" width="63.645" height="38.667" viewBox="0 0 63.645 38.667">
  <g id="Group_28" data-name="Group 28" transform="translate(-10031.689 1236.032)">
    <path id="Path_98" data-name="Path 98" d="M6517.319,899.256l50.515-8.232.3,2.076-50.61,7.717Z" transform="matrix(0.998, -0.07, 0.07, 0.998, 3471.798, -1657.684)" fill="#a18978"/>
    <g id="Group_27" data-name="Group 27" transform="translate(9763.842 -1278.941) rotate(8)">
      <path id="Path_71" data-name="Path 71" d="M9881.855-997.245c-.9.091,9.153-6.854,11.311-7.138.94,3.345,1.412,3.46,1.412,3.46v-4.926s4.491-1.46,6.237,0a34.376,34.376,0,0,1,.521,4.926s.191-6.024,1.006-5.817,5.709,1.853,6.591,2.912a41.934,41.934,0,0,0-1.632,4.166s2.17-3.7,3.1-3.223,4.68,4.552,5.043,6.151,1.74,9.155,2.473,9.525-12.324,3.389-15.987,3.042-8.335-3-10.117-4.3a22.577,22.577,0,0,1-4.224-4.239C9886.637-993.928,9882.756-997.335,9881.855-997.245Z" transform="translate(-9303.398 -2597.169) rotate(21)" fill="#fff" stroke="#707070" stroke-width="1"/>
      <path id="Path_72" data-name="Path 72" d="M9892.556-996.652h0c.012-.006,5.405-3.049,8.369-2.135.982.3,1.27.072,1.615-.622l.084-.562.071-1.8" transform="translate(-9304.389 -2598.262) rotate(21)" fill="none" stroke="#707070" stroke-linecap="round" stroke-width="1"/>
      <path id="Path_73" data-name="Path 73" d="M9912.779-994.136s.336.49.974,1.5c.9,1.429,2.669,4.442,2.735,5.98.1,2.212,1.823,1.139,1.823,1.139s1.045-1.535-1.327-3.457" transform="translate(-9306.481 -2604.394) rotate(21)" fill="none" stroke="#707070" stroke-linecap="round" stroke-width="1"/>
      <path id="Path_74" data-name="Path 74" d="M9874.418-1169.54s-2.666-.4-2.841.49,2.217,1.9,2.735,1.859,1.468-1.787,5.308-1.664,4.626,2.208,4.847,1.29,1.348-4.281,1.348-4.281" transform="translate(-9586 1186)" fill="none" stroke="#707070" stroke-width="1"/>
      <path id="Path_75" data-name="Path 75" d="M9940.365-1170.269s-3.61.946-4.411.653" transform="translate(-9660 1183)" fill="none" stroke="#707070" stroke-linecap="round" stroke-width="1"/>
    </g>
    <path id="Path_97" data-name="Path 97" d="M6517.319,899.256l58.326-8.232.341,2.076-58.437,7.717Z" transform="translate(3519.347 -2110.538)" fill="#a18978"/>
  </g>
</svg>