<svg xmlns="http://www.w3.org/2000/svg" width="445.1" height="104" viewBox="0 0 445.1 104"><path d="M38.4-64.5a10.108,10.108,0,0,1,5.4,3.55,8.88,8.88,0,0,1,2.1,5.6q0,2.95-1.1,4.15l-.8-.6a8.333,8.333,0,0,0,.6-3.3,8.07,8.07,0,0,0-3.35-6.75A13.719,13.719,0,0,0,32.7-64.4H31.5l-12.6.7V-34H31.3q7.2,0,7.2-4.1a4.636,4.636,0,0,0-.5-2.1l1-.5a4.287,4.287,0,0,1,.8,2.75,4.1,4.1,0,0,1-1.35,3.05,5.9,5.9,0,0,1-3.25,1.6q3.9,1.3,4.7,7.4l-1.2.3q-.7-3.9-2.3-5.55T31.2-32.8H18.9V-4.2Q27.3.1,34.25.1t9.7-2.2Q46.7-4.3,46.7-9.9a10.384,10.384,0,0,0-.5-3.3l1.1-.5A9.9,9.9,0,0,1,48-9.9q0,6-3.1,8.6T35.4,1.3A36.837,36.837,0,0,1,17.5-3.4V-64.8l14.7-.8a45.892,45.892,0,0,0,18-4,15.537,15.537,0,0,0,6.3-5.25,13.7,13.7,0,0,0,2.3-7.95l1.2.1q0,8-6,12.25T38.4-65q-.7,0-2.3-.1v.2Q37.5-64.7,38.4-64.5Zm-23.5,4v49.8q0,6-2.2,8.95T5.2,1.2A14.414,14.414,0,0,1,.7.6l.2-1a18.193,18.193,0,0,0,4,.5q5,0,6.8-2.6t1.8-8.2V-60.5q0-5.6-1.8-8.2T4.9-71.3a18.193,18.193,0,0,0-4,.5l-.2-1a14.414,14.414,0,0,1,4.5-.6q5.3,0,7.5,2.95T14.9-60.5ZM79.5-25.3a73.988,73.988,0,0,0,6.2-9.2q2.8-4.9,2.8-7.4a4.293,4.293,0,0,0-2.15-3.85A9.111,9.111,0,0,0,81.4-47.1a22.66,22.66,0,0,0-5,.5l-.2-.9a12.507,12.507,0,0,1,4.5-.7q6.7,0,8.5,4.1a6.592,6.592,0,0,1,3.65-4.8,14.519,14.519,0,0,1,6.85-1.6h1l-.1,1q-9.9,0-10.7,6.8-.7,7.1-9.8,18.4l11,19.7A14.237,14.237,0,0,0,94.05-.7,6.5,6.5,0,0,0,98.2.4a8.074,8.074,0,0,0,4.1-.8l.6.7a7.591,7.591,0,0,1-4.75,1.2A7.59,7.59,0,0,1,93.3.2a16.211,16.211,0,0,1-3.4-4.4L79.1-23.3l-.7.9a64.478,64.478,0,0,0-6.3,9.8q-3.3,6.1-3.3,8.05a3.887,3.887,0,0,0,2.15,3.3A9.111,9.111,0,0,0,75.9.1a22.66,22.66,0,0,0,5-.5l.2.9a12.507,12.507,0,0,1-4.5.7q-7.7,0-8.8-5-1.8,5-9.1,5A12.507,12.507,0,0,1,54.2.5l.2-.9a18.193,18.193,0,0,0,4,.5q5.3,0,7.4-2.5a11.59,11.59,0,0,0,1.6-3A68.124,68.124,0,0,1,77.9-23.6l.6-.8-10-18a14.237,14.237,0,0,0-2.95-3.9,6.5,6.5,0,0,0-4.15-1.1,8.073,8.073,0,0,0-4.1.8l-.6-.7a7.591,7.591,0,0,1,4.75-1.2,7.59,7.59,0,0,1,4.85,1.3,16.211,16.211,0,0,1,3.4,4.4ZM118.7-1.9a17.405,17.405,0,0,0-4.9-.8,16.068,16.068,0,0,0-4.1.5l-.2-.9a13.241,13.241,0,0,1,4.4-.7,15.1,15.1,0,0,1,4.8.8V-33.7q0-13.3-8.6-13.3a7.572,7.572,0,0,0-3.9.8l-.6-.7a7.69,7.69,0,0,1,4.8-1.2q9.6,0,9.6,14.4v2.1a39.985,39.985,0,0,1,8.95-10.3,41.242,41.242,0,0,1,10.45-6.6,17.468,17.468,0,0,1,7.9,8.6,32.734,32.734,0,0,1,2.6,13.5A36.511,36.511,0,0,1,146.35-11,31.418,31.418,0,0,1,136.2,1.5,42.918,42.918,0,0,1,120-1.3V13.3q0,6.8,8.6,6.8a18.193,18.193,0,0,0,4-.5l.2.9a13.529,13.529,0,0,1-4.8.7,12.348,12.348,0,0,1-5.6-1.3,5.362,5.362,0,0,1-3.1-3.9,5.373,5.373,0,0,1-3.05,3.9,12.042,12.042,0,0,1-5.55,1.3,13.528,13.528,0,0,1-4.8-.7l.2-.9a18.193,18.193,0,0,0,4,.5q8.6,0,8.6-6.8ZM135.9.4a31.371,31.371,0,0,0,9.35-12.1,35.531,35.531,0,0,0,3.25-14.55,33.22,33.22,0,0,0-2.3-12.8,15.386,15.386,0,0,0-7-8.05,38.171,38.171,0,0,0-10.45,6.85A36.37,36.37,0,0,0,120-29.6v27Q126.5.4,135.9.4Zm42.3,1.1a19.909,19.909,0,0,1-10.4-8.6A25.887,25.887,0,0,1,164-20.9a37.546,37.546,0,0,1,3.3-15.15,34.157,34.157,0,0,1,9-12.45q17.3,0,17.3,11.8a21.042,21.042,0,0,1-1.4,7.5q2.8-.1,6.8-.1v1h-1.9a203.888,203.888,0,0,0-31.4,2.7,42.857,42.857,0,0,0-.3,4.9,24.582,24.582,0,0,0,3.4,12.75A18.22,18.22,0,0,0,178.4.1a33.705,33.705,0,0,0,7.5-4.35,30.644,30.644,0,0,0,6.2-6.05l.9.6a34.2,34.2,0,0,1-6.65,6.45A35.287,35.287,0,0,1,178.2,1.5Zm14.1-38.2q0-10.7-15.6-10.7-8.5,7.3-10.8,20.6a210.523,210.523,0,0,1,25.2-2.4A25.474,25.474,0,0,0,192.3-36.7Zm25.1,30q0,6.8,8.6,6.8a18.193,18.193,0,0,0,4-.5l.2.9a13.529,13.529,0,0,1-4.8.7,12.348,12.348,0,0,1-5.6-1.3A5.362,5.362,0,0,1,216.7-4a5.373,5.373,0,0,1-3.05,3.9,12.042,12.042,0,0,1-5.55,1.3,13.529,13.529,0,0,1-4.8-.7l.2-.9a18.193,18.193,0,0,0,4,.5q8.6,0,8.6-6.8V-33.8q0-13.3-8.6-13.3a7.572,7.572,0,0,0-3.9.8L203-47a7.69,7.69,0,0,1,4.8-1.2q9.6,0,9.6,14.4v2.4q5.5-13,15.9-17.1,3.6,4.1,3.6,12.3v.9h-1.3v-1q0-7.1-2.8-10.8a23.026,23.026,0,0,0-8.75,6.85A63.427,63.427,0,0,0,217.4-29Zm31.4-4V-47h1.3v36q0,3.3.15,4.95a11.211,11.211,0,0,0,.9,3.4,4.29,4.29,0,0,0,2.3,2.4,11.1,11.1,0,0,0,4.2.65,7.7,7.7,0,0,0,3.95-.8l.6.7a7.69,7.69,0,0,1-4.8,1.2q-5.4,0-7-2.8T248.8-10.7Zm2.8-53.7a2.389,2.389,0,0,1-.6,1.6,2,2,0,0,1-1.6.7,2,2,0,0,1-1.6-.7,2.389,2.389,0,0,1-.6-1.6,1.945,1.945,0,0,1,2.2-2.2A1.945,1.945,0,0,1,251.6-64.4ZM284.1,1.5a19.909,19.909,0,0,1-10.4-8.6,25.887,25.887,0,0,1-3.8-13.8,37.546,37.546,0,0,1,3.3-15.15,34.157,34.157,0,0,1,9-12.45q17.3,0,17.3,11.8a21.043,21.043,0,0,1-1.4,7.5q2.8-.1,6.8-.1v1H303a203.888,203.888,0,0,0-31.4,2.7,42.854,42.854,0,0,0-.3,4.9,24.582,24.582,0,0,0,3.4,12.75A18.221,18.221,0,0,0,284.3.1a33.705,33.705,0,0,0,7.5-4.35A30.644,30.644,0,0,0,298-10.3l.9.6a34.2,34.2,0,0,1-6.65,6.45A35.287,35.287,0,0,1,284.1,1.5Zm14.1-38.2q0-10.7-15.6-10.7-8.5,7.3-10.8,20.6A210.523,210.523,0,0,1,297-29.2,25.474,25.474,0,0,0,298.2-36.7ZM350-33.1q0-10.6-7.1-14.2a41.1,41.1,0,0,0-11.05,7.45A44.339,44.339,0,0,0,323.3-29.2V-6.7q0,6.8,8.6,6.8a18.193,18.193,0,0,0,4-.5l.2.9a13.528,13.528,0,0,1-4.8.7,12.348,12.348,0,0,1-5.6-1.3A5.362,5.362,0,0,1,322.6-4a5.373,5.373,0,0,1-3.05,3.9A12.042,12.042,0,0,1,314,1.2a13.529,13.529,0,0,1-4.8-.7l.2-.9a18.193,18.193,0,0,0,4,.5q8.6,0,8.6-6.8V-33.8q0-13.3-8.6-13.3a7.572,7.572,0,0,0-3.9.8l-.6-.7a7.69,7.69,0,0,1,4.8-1.2q9.6,0,9.6,14.4v2.7A39.317,39.317,0,0,1,332-41.5a44.89,44.89,0,0,1,11-7q8.3,3.7,8.3,15.7v.9L350.8-11v1.4a16.323,16.323,0,0,0,1.35,7.45Q353.5.4,358.4.4a7.572,7.572,0,0,0,3.9-.8l.6.7a7.69,7.69,0,0,1-4.8,1.2q-5.4,0-7-2.85T349.5-9.7V-11l.5-20.9Zm33.3-14.3a31.191,31.191,0,0,0-8.35,11.85A37.715,37.715,0,0,0,372-21.05a25.246,25.246,0,0,0,3.4,13.1A18.22,18.22,0,0,0,385,.1a33.705,33.705,0,0,0,7.5-4.35,30.645,30.645,0,0,0,6.2-6.05l.9.6a34.2,34.2,0,0,1-6.65,6.45A35.288,35.288,0,0,1,384.8,1.5a19.909,19.909,0,0,1-10.4-8.6,25.887,25.887,0,0,1-3.8-13.8,37.546,37.546,0,0,1,3.3-15.15,34.157,34.157,0,0,1,9-12.45,32.255,32.255,0,0,1,16.2,4.2l-.5.9A31.78,31.78,0,0,0,383.3-47.4ZM425,1.5a19.909,19.909,0,0,1-10.4-8.6,25.887,25.887,0,0,1-3.8-13.8,37.546,37.546,0,0,1,3.3-15.15,34.157,34.157,0,0,1,9-12.45q17.3,0,17.3,11.8a21.043,21.043,0,0,1-1.4,7.5q2.8-.1,6.8-.1v1h-1.9a203.888,203.888,0,0,0-31.4,2.7,42.854,42.854,0,0,0-.3,4.9,24.582,24.582,0,0,0,3.4,12.75A18.221,18.221,0,0,0,425.2.1a33.705,33.705,0,0,0,7.5-4.35,30.644,30.644,0,0,0,6.2-6.05l.9.6a34.2,34.2,0,0,1-6.65,6.45A35.287,35.287,0,0,1,425,1.5Zm14.1-38.2q0-10.7-15.6-10.7-8.5,7.3-10.8,20.6a210.523,210.523,0,0,1,25.2-2.4A25.474,25.474,0,0,0,439.1-36.7Z" transform="translate(-0.7 82.8)" fill="#324d67"/></svg>