<svg xmlns="http://www.w3.org/2000/svg" width="646.3" height="84.3" viewBox="0 0 646.3 84.3"><path d="M17.5-10.7V-64.8l14.7-.8a45.892,45.892,0,0,0,18-4,15.537,15.537,0,0,0,6.3-5.25,13.7,13.7,0,0,0,2.3-7.95l1.2.1q0,8-6,12.25T38.4-65q-.7,0-2.3-.1v.2q1.4.2,2.3.4a10.108,10.108,0,0,1,5.4,3.55,8.88,8.88,0,0,1,2.1,5.6q0,2.95-1.1,4.15l-.8-.6a8.333,8.333,0,0,0,.6-3.3,8.07,8.07,0,0,0-3.35-6.75A13.719,13.719,0,0,0,32.7-64.4H31.5l-12.6.7V-34H31.3q7.2,0,7.2-4.1a4.636,4.636,0,0,0-.5-2.1l1-.5a4.287,4.287,0,0,1,.8,2.75,4.1,4.1,0,0,1-1.35,3.05,5.9,5.9,0,0,1-3.25,1.6q3.9,1.3,4.7,7.4l-1.2.3q-.7-3.9-2.3-5.55T31.2-32.8H18.9v22.1q0,5.6,1.8,8.2T27.5.1a18.193,18.193,0,0,0,4-.5l.2,1a14.414,14.414,0,0,1-4.5.6q-5.3,0-7.5-2.95T17.5-10.7ZM14.9-60.5v49.8q0,6-2.2,8.95T5.2,1.2A14.414,14.414,0,0,1,.7.6l.2-1a18.193,18.193,0,0,0,4,.5q5,0,6.8-2.6t1.8-8.2V-60.5q0-5.6-1.8-8.2T4.9-71.3a18.193,18.193,0,0,0-4,.5l-.2-1a14.414,14.414,0,0,1,4.5-.6q5.3,0,7.5,2.95T14.9-60.5ZM68,1.5A19.909,19.909,0,0,1,57.6-7.1a25.887,25.887,0,0,1-3.8-13.8,37.546,37.546,0,0,1,3.3-15.15,34.157,34.157,0,0,1,9-12.45q17.3,0,17.3,11.8A21.042,21.042,0,0,1,82-29.2q2.8-.1,6.8-.1v1H86.9a203.888,203.888,0,0,0-31.4,2.7,42.857,42.857,0,0,0-.3,4.9A24.582,24.582,0,0,0,58.6-7.95,18.22,18.22,0,0,0,68.2.1a33.706,33.706,0,0,0,7.5-4.35,30.644,30.644,0,0,0,6.2-6.05l.9.6a34.2,34.2,0,0,1-6.65,6.45A35.287,35.287,0,0,1,68,1.5ZM82.1-36.7q0-10.7-15.6-10.7Q58-40.1,55.7-26.8a210.523,210.523,0,0,1,25.2-2.4A25.474,25.474,0,0,0,82.1-36.7Zm46.4-5.1v28.6Q128.5.1,137.1.1A7.572,7.572,0,0,0,141-.7l.6.7a7.69,7.69,0,0,1-4.8,1.2q-9.6,0-9.6-14.4v-2.2a39.985,39.985,0,0,1-8.95,10.3A41.242,41.242,0,0,1,107.8,1.5a17.468,17.468,0,0,1-7.9-8.6,32.734,32.734,0,0,1-2.6-13.5A36.51,36.51,0,0,1,100.85-36,31.418,31.418,0,0,1,111-48.5a32.447,32.447,0,0,1,16.3,4.2,15.793,15.793,0,0,1,3.3-8.5l.9.5A19.43,19.43,0,0,0,128.5-41.8Zm-17.2-5.6a31.371,31.371,0,0,0-9.35,12.1A35.531,35.531,0,0,0,98.7-20.75,33.22,33.22,0,0,0,101-7.95,15.386,15.386,0,0,0,108,.1a38.17,38.17,0,0,0,10.45-6.85A36.37,36.37,0,0,0,127.2-17.4V-43.1A31.12,31.12,0,0,0,111.3-47.4Zm34.3,1.5V-47h9.9l.3-11.5h1.3L156.8-47h16.1v1.1H156.8l-.6,30.8v.6q0,11.2,7.1,14.8a33.391,33.391,0,0,0,10.6-7.7l.8.7a33.689,33.689,0,0,1-11.5,8.2q-8.3-3.7-8.3-15.7v-.9l.6-30.8Zm71.8,5.6v27.1Q217.4.1,226,.1a7.572,7.572,0,0,0,3.9-.8l.6.7a7.69,7.69,0,0,1-4.8,1.2q-9.6,0-9.6-14.4v-2.6a42.07,42.07,0,0,1-8.85,10.35A44.057,44.057,0,0,1,196.4,1.5q-8.3-3.7-8.3-15.7v-.9l.5-20.9v-1.4a16.323,16.323,0,0,0-1.35-7.45Q185.9-47.4,181-47.4a7.572,7.572,0,0,0-3.9.8l-.6-.7a7.69,7.69,0,0,1,4.8-1.2q5.4,0,7,2.85t1.6,8.35V-36l-.5,20.9v1.2q0,10.6,7.1,14.2a41.716,41.716,0,0,0,10.95-7.45A46.5,46.5,0,0,0,216.1-17.8V-40.3q0-6.8-8.6-6.8a18.193,18.193,0,0,0-4,.5l-.2-.9a13.528,13.528,0,0,1,4.8-.7,12.042,12.042,0,0,1,5.55,1.3A5.373,5.373,0,0,1,216.7-43a5.362,5.362,0,0,1,3.1-3.9,12.348,12.348,0,0,1,5.6-1.3,13.528,13.528,0,0,1,4.8.7l-.2.9a18.193,18.193,0,0,0-4-.5Q217.4-47.1,217.4-40.3ZM248.7-6.7q0,6.8,8.6,6.8a18.193,18.193,0,0,0,4-.5l.2.9a13.528,13.528,0,0,1-4.8.7,12.348,12.348,0,0,1-5.6-1.3A5.362,5.362,0,0,1,248-4a5.373,5.373,0,0,1-3.05,3.9,12.042,12.042,0,0,1-5.55,1.3,13.529,13.529,0,0,1-4.8-.7l.2-.9a18.193,18.193,0,0,0,4,.5q8.6,0,8.6-6.8V-33.8q0-13.3-8.6-13.3a7.572,7.572,0,0,0-3.9.8l-.6-.7a7.69,7.69,0,0,1,4.8-1.2q9.6,0,9.6,14.4v2.4q5.5-13,15.9-17.1,3.6,4.1,3.6,12.3v.9h-1.3v-1q0-7.1-2.8-10.8a23.026,23.026,0,0,0-8.75,6.85A63.427,63.427,0,0,0,248.7-29Zm42.6,8.2a19.909,19.909,0,0,1-10.4-8.6,25.887,25.887,0,0,1-3.8-13.8,37.546,37.546,0,0,1,3.3-15.15,34.157,34.157,0,0,1,9-12.45q17.3,0,17.3,11.8a21.043,21.043,0,0,1-1.4,7.5q2.8-.1,6.8-.1v1h-1.9a203.888,203.888,0,0,0-31.4,2.7,42.854,42.854,0,0,0-.3,4.9,24.582,24.582,0,0,0,3.4,12.75A18.221,18.221,0,0,0,291.5.1,33.705,33.705,0,0,0,299-4.25a30.644,30.644,0,0,0,6.2-6.05l.9.6a34.2,34.2,0,0,1-6.65,6.45A35.287,35.287,0,0,1,291.3,1.5Zm14.1-38.2q0-10.7-15.6-10.7-8.5,7.3-10.8,20.6a210.523,210.523,0,0,1,25.2-2.4A25.474,25.474,0,0,0,305.4-36.7Zm46.4,23.5Q351.8.1,360.4.1a7.572,7.572,0,0,0,3.9-.8l.6.7a7.69,7.69,0,0,1-4.8,1.2q-9.6,0-9.6-14.4v-2.2a39.985,39.985,0,0,1-8.95,10.3A41.241,41.241,0,0,1,331.1,1.5a17.468,17.468,0,0,1-7.9-8.6,32.734,32.734,0,0,1-2.6-13.5A36.51,36.51,0,0,1,324.15-36,31.418,31.418,0,0,1,334.3-48.5a32.255,32.255,0,0,1,16.2,4.2v-7.4q0-13.6-3.9-17.5a11.412,11.412,0,0,0-5-2.8l.2-1q6.8,1.6,8.6,8a50.976,50.976,0,0,1,1.4,13.3ZM334.6-47.4a31.37,31.37,0,0,0-9.35,12.1A35.531,35.531,0,0,0,322-20.75a33.221,33.221,0,0,0,2.3,12.8,15.386,15.386,0,0,0,7,8.05,38.17,38.17,0,0,0,10.45-6.85A36.37,36.37,0,0,0,350.5-17.4V-43.1A31.12,31.12,0,0,0,334.6-47.4Zm48.6-9.3a9.532,9.532,0,0,1,2.85-7.1A9.543,9.543,0,0,1,393-66.6a14.832,14.832,0,0,1,6.75,1.35,12.49,12.49,0,0,1,4.55,4.05,45.248,45.248,0,0,1,5.6,12.3l6.1,19q6.7,21,6.7,27.4v1l1.8-3.1a17.878,17.878,0,0,0,.2-2.5q0-4.5-6.8-26.5l-4.3-14.1a76.3,76.3,0,0,0-3.95-10.7,20.976,20.976,0,0,0-4.55-6.3l.9-.8a18.59,18.59,0,0,1,4.8,6.3A84.429,84.429,0,0,1,415-47.9L419.3-34Q426-13,426-7.4v.3q9.4-16.5,12.5-26.7l-5.6-20.6a19.08,19.08,0,0,1-.7-5.35,8.171,8.171,0,0,1,1.25-4.75,4.163,4.163,0,0,1,3.65-1.8q6,0,6,11.9A78.854,78.854,0,0,1,439.9-34l8.9,33q19.9-28.5,19.9-53.4,0-5.6-1.8-8.2t-6.8-2.6a18.193,18.193,0,0,0-4,.5l-.2-1a14.414,14.414,0,0,1,4.5-.6q7.7,0,9,6.6,1.2-6.6,9-6.6a14.414,14.414,0,0,1,4.5.6l-.2,1a18.193,18.193,0,0,0-4-.5q-4.9,0-6.75,2.5t-1.85,8.3q0,25.3-20.9,55.2l-1.3.3-8.6-31.8v-2.1h-.2a12.905,12.905,0,0,1-.3,2.4q-3.1,9.7-16,31.2l-1.7.4a15.627,15.627,0,0,0,.3-3.4q0-6-6.8-27.3l-6.1-19.2q-2.8-8.8-6.15-12.75a10.314,10.314,0,0,0-8.15-3.95q-4.8,0-7.2,2.45a8.5,8.5,0,0,0-2.4,6.2,9.49,9.49,0,0,0,1.7,5.95,5.507,5.507,0,0,0,4.6,2.2,6.046,6.046,0,0,0,4.55-1.7,6.186,6.186,0,0,0,1.65-4.5,6.93,6.93,0,0,0-.3-2l1.1-.4a6.2,6.2,0,0,1,.5,2.4,7.336,7.336,0,0,1-2,5.35,7.263,7.263,0,0,1-5.45,2.05,6.977,6.977,0,0,1-5.6-2.55A10.123,10.123,0,0,1,383.2-56.7Zm53.9-8.4a2.864,2.864,0,0,0-2.6,1.5,7.505,7.505,0,0,0-.9,3.9,20.075,20.075,0,0,0,.8,5.3l4.8,17.9a72.941,72.941,0,0,0,2.5-17.9Q441.7-65.1,437.1-65.1ZM503.5,1.3q-10.2,0-14.85-6.85T484-23.9q0-13.7,8.1-23.5a30.328,30.328,0,0,1,6.5-.7q10.3,0,14.9,5.95t4.6,17.25q0,15.7-8.1,25.5A30.328,30.328,0,0,1,503.5,1.3Zm.3-1.1a25.742,25.742,0,0,0,5.6-.6q7.4-9.4,7.4-24.4,0-10.9-4.3-16.55T498.3-47a25.742,25.742,0,0,0-5.6.6q-7.4,9.1-7.4,22.4Q485.3.2,503.8.2Zm38.4-6.9q0,6.8,8.6,6.8a18.193,18.193,0,0,0,4-.5l.2.9a13.528,13.528,0,0,1-4.8.7,12.348,12.348,0,0,1-5.6-1.3A5.362,5.362,0,0,1,541.5-4a5.373,5.373,0,0,1-3.05,3.9,12.042,12.042,0,0,1-5.55,1.3,13.528,13.528,0,0,1-4.8-.7l.2-.9a18.193,18.193,0,0,0,4,.5q8.6,0,8.6-6.8V-33.8q0-13.3-8.6-13.3a7.572,7.572,0,0,0-3.9.8l-.6-.7a7.69,7.69,0,0,1,4.8-1.2q9.6,0,9.6,14.4v2.4q5.5-13,15.9-17.1,3.6,4.1,3.6,12.3v.9h-1.3v-1q0-7.1-2.8-10.8a23.026,23.026,0,0,0-8.75,6.85A63.427,63.427,0,0,0,542.2-29ZM577-6.9V-51.7q0-8.3,1.15-12.45a12.593,12.593,0,0,1,3.3-6.1A12.269,12.269,0,0,1,587-73l.2,1a10.326,10.326,0,0,0-7.7,7.8,53.113,53.113,0,0,0-1.2,12.5v20.6q7.1-12.3,18.7-17.4a10.469,10.469,0,0,1,6.15,4.75,15.611,15.611,0,0,1,2.15,8.25,11.51,11.51,0,0,1-3.15,8.1,17.836,17.836,0,0,1-8.05,4.9L600-5.8a11.157,11.157,0,0,0,2.9,4.75A6.855,6.855,0,0,0,607.5.4a8.332,8.332,0,0,0,4.2-.8l.6.7q-1.5,1.2-4.85,1.2A8.319,8.319,0,0,1,602.1-.1a10.852,10.852,0,0,1-3.2-5.1l-6.1-17a23.048,23.048,0,0,1-5.8.7v-1.1a20.452,20.452,0,0,0,11.95-3.5A10.979,10.979,0,0,0,604-35.6a14.631,14.631,0,0,0-1.8-7.3,9.367,9.367,0,0,0-5.3-4.4q-11.1,5-18.6,18.1V-6.9q0,6.8,8.6,6.8a18.193,18.193,0,0,0,4-.5l.2.9a13.528,13.528,0,0,1-4.8.7,12.349,12.349,0,0,1-5.6-1.3,5.362,5.362,0,0,1-3.1-3.9,5.373,5.373,0,0,1-3.05,3.9A12.042,12.042,0,0,1,569,1a13.529,13.529,0,0,1-4.8-.7l.2-.9a18.193,18.193,0,0,0,4,.5Q577-.1,577-6.9Zm46.3-27.5q0,2.5,3.7,5.1a42.479,42.479,0,0,0,8.15,4.45,38.139,38.139,0,0,1,8.15,4.6Q647-17.5,647-14.6q0,4.6-4,9a32.74,32.74,0,0,1-9.2,7.1,27.3,27.3,0,0,1-14.4-4.2l.6-.9q7.3,4,13.6,4a29.441,29.441,0,0,0,8.45-6.6q3.65-4.1,3.65-8.4,0-2.5-3.7-5.1a42.477,42.477,0,0,0-8.15-4.45,38.139,38.139,0,0,1-8.15-4.6q-3.7-2.75-3.7-6.2t3.75-7.5a26.4,26.4,0,0,1,7.95-6.05A26.076,26.076,0,0,1,646.9-45l-.6.9A25.232,25.232,0,0,0,634-47.4a24.678,24.678,0,0,0-7.35,5.75Q623.3-37.9,623.3-34.4Z" transform="translate(-0.7 82.8)" fill="#324d67"/></svg>