<svg xmlns="http://www.w3.org/2000/svg" width="361.91" height="341.082" viewBox="0 0 361.91 341.082"><g transform="translate(-64 -602.88)"><g transform="translate(65 603.851)"><path d="M1915,900.438s5.573-4.6,5.413-6.605,6.634-29.348,8-31.618,14.053-27.294,13.863-29.027,13.4-27.653,14.7-28.913,8.183-30.858,7.387-33.733,11.1-12.1,12.649-12.683,35.932-27.61,37.81-28.375,14.331-15.205,20.593-17.02,11.139-3.105,13.236-3.556,11.456,2,13.024,2.047,7.429-2.865,9.315-3.49,17.849-1.81,18.643-1.945,15.82-9.792,15.82-9.792,1.943-16.014,2.29-17.314,4.364-7.707,4.364-8.611,2.267-12.265,5.383-15.67,11.57-9.34,17.034-8.745,17.732-9.347,21.187-10.688,6.736-5.789,21.961-4.669,41.566-.184,43.586,0,24.972,15.662,29.242,20.056,12.313,17.624,8.664,27.2-3.211,7.05-3.211,7.05,23.923,27.074,17.993,56.453-10.292,47.186-22.773,58.366-28.12,8.126-30.45,8.736-10.2,6.646-10.2,6.646l2.521-6.646s-21.851,14.7-25.872,17.681-10.139,4.069-13.124,3.914-18.19,6.237-21.834,7.522-15.01,3.337-16.055,3.51,10.521,6.677,11.405,8.755,1.269,3.066,1.888,3.37,1.6,5.969,1.6,5.969,9.318,21.561,10.485,22.34,7.914,14.845,6.646,17.648c1.539,2.666,2.149,3.3,2.149,9.426a86.481,86.481,0,0,0,.966,13.465c.316,1.38,3.666,12.868,3.666,15.545s-2.137,10.175-3.666,13.652-2.157,6.352-3.115,7.26-3.866,9.985-3.866,10.671-249.319.177-249.319.177Z" transform="translate(-1915 -629.851)" fill="none" stroke="#707070" stroke-width="2"/><path d="M.451.866s7.115-1.95,12.059,0,7.615,3.725,8.9,6.233,2.733,4.2,3.37,9.45S7.509,14.69,6.448,13.542.034,5.888,0,3.366.451.866.451.866Z" transform="translate(214.627 82.077) rotate(25)" fill="none" stroke="#707070" stroke-width="2"/><path d="M2534.615,771.941s-11.244,19.759-16.485,25.772-36.174,23.546-39.821,26.931-66.019,42.577-73.644,47.442a61.065,61.065,0,0,1-13.045,6.562s-4.535,1.343-5,3.855.024,6.041-1.822,8.488-4.345,5.72-4.416,7.867-9.988,10.455-11.871,12.216,11.489,12.141,33.968,16.159c11.622,2.077,22.989-1.809,32.294-4.875,8.548-2.817,15.412-4.734,15.987-5.5,1.19-1.577,2.376-.489,2.376-.489a14.685,14.685,0,0,0,3.628,0c2.161-.24,7.093-2.407,13.231-6.6s10.113-6.982,10.113-6.982a5.492,5.492,0,0,0-.628-2.962c-.757-1.076,19.112-17.821,20.876-20.876s4.5-11.911,4.5-11.911,3.458-7.728,3.458-10.507V853.27s-22.183,7.523-28.2,7.373" transform="translate(-2193.624 -717.182)" fill="none" stroke="#707070" stroke-width="2"/><path d="M2629.923,905.312s29.748-4.332,36.722-15.423" transform="translate(-2354.402 -789.674)" fill="none" stroke="#707070" stroke-width="2"/><path d="M2690.025,886.329s6.383,29.77-28.414,39.894" transform="translate(-2373.878 -787.486)" fill="none" stroke="#707070" stroke-width="2"/><path d="M2282.813,828.517s-5.209,2.391-7.308,3.6-4.116-.148-6.662,3.524-6.212,11.319-7.219,12.1-6,3.64-6.445,5.82-4.432,11.859-5.365,13.092-1.13,5.549-.9,10.164-2.184,8.324-3.275,10.456.7,12.6-3.69,19.555-11.974,13.362-12.668,15.792,2.489,16.092,12.668,12.539,19.848-7.867,25.07-7.511" transform="translate(-2108.105 -751.954)" fill="none" stroke="#707070" stroke-width="2"/><path d="M2489.334,815.06s6.039.862,8.2,2.863,2.4,5.726,3.519,6.107,6.829,4.88,8.036,6.088a66.829,66.829,0,0,1,5.765,7.813c.32.8,1.143,2.446-1.318,1.947s-1.428-1.137-1.642-1.947-4.718-6.23-5.424-6.481-2.424-.315-2.844-.833-5.146-4.419-5.169-5.355a8,8,0,0,0,0-1.89c-.168-.609-9.166-5.825-9.122-6.8A13.278,13.278,0,0,0,2489.334,815.06Z" transform="translate(-2267.994 -743.683)" fill="none" stroke="#707070" stroke-width="2"/><path d="M2452.813,854.069s-4.986-2.828-8.868,0-4.425,2.841-4.3,4.968,2.826,2.953,4.3,2.953,3.322.451,6.056-2.953S2452.813,854.069,2452.813,854.069Z" transform="translate(-2240.763 -766.315)" fill="#343adb"/><path d="M2423.348,1055.035s.6,2.936,2.129,4.084a41.145,41.145,0,0,0,5.011,3.405c2.466,1.426,7.81,10.669,8.6,13.085" transform="translate(-2227.438 -891.175)" fill="none" stroke="#707070" stroke-width="2"/><path d="M2489.945,1029.575s2.725.109,3.178,1.068a3.992,3.992,0,0,1,0,3.369c-.54.826-3.175-1.138-3.178-1.684S2489.945,1029.575,2489.945,1029.575Z" transform="translate(-2268.369 -875.527)" fill="none" stroke="#707070" stroke-width="2"/><path d="M2409.423,742.8s56.556-35.548,56.778-36.461" transform="translate(-2218.879 -676.859)" fill="none" stroke="#707070" stroke-width="2"/><path d="M2623.584,938.087" transform="translate(-2350.506 -819.297)" fill="none" stroke="#707070" stroke-width="2"/><path d="M2298.69,889.408s1.4.809-.969,8.067-1.111,16.873-.51,17.478,1.729-1.637,3.321-1.612,2.489,0,2.489,0,5.91-4.914,7.079-5.162,1.529-3.152,1.529-3.152a4.718,4.718,0,0,0,3.563-.573c1.656-1.1,25.1-11.16,26.585-15.046s5.42-2.013,5.42-2.013l1.463-4.609h7.594l1.917-5.233h5.179" transform="translate(-2149.373 -782.092)" fill="none" stroke="#707070" stroke-width="2"/><path d="M2501.748,852.812a32.223,32.223,0,0,0,3.437-.534c1.119-.293,2.9-3.517,2.9-3.517" transform="translate(-2275.623 -764.396)" fill="none" stroke="#707070" stroke-width="2"/><path d="M2528.351,767.806s3.615-.287,4.348.427,2.4-.756,2.278-1.6,2.835-1.374,4.039-1.661,1.572-3.22,2.313-3.22,4.238,1.754,4.238-1.1,1.907-6.995,3.322-6.869a27.37,27.37,0,0,1,3.847.83s9.658-10.49,13.6-11.749,18.169-9.815,19.7-11.7,14.655-6.979,16.761-6.979,3.626.44,4.6.44,4.125-2.854,5.566-2.818,5.425-.139,6.435,0,6.044.6,6.5-1.382,8.581,7.06,8.8,9.591" transform="translate(-2291.974 -685.344)" fill="none" stroke="#707070" stroke-width="2"/><path d="M2581.094,950.054l-8.885,8.828a27.84,27.84,0,0,1-3.021,1.34c-.321,0,1.191,1.343,1.191,1.343s-2.227,4.391-1.191,4.8,4.959,2.118,5.186,3.143-1.032,7.042,0,7.619,2.964,3.249,8.215,3.443" transform="translate(-2316.905 -826.652)" fill="none" stroke="#707070" stroke-width="2"/><path d="M2611.492,1014.843s.773,1.785,1.742,1.891,2.06-.825,2.336.775,2.153,4.012,3.481,4.143,2.6.572,3.09-.52,3.791,1.612,3.791,1.612a6.236,6.236,0,0,0,3.813-6.01c-.223-4.448-2.322-3.6-2.338-7.673s4.837-4.809,4.837-4.809,3.59-1.494,5.219-.864,1.125,2.6,1.681,3.942,3.423,5.892-1.681,11.065" transform="translate(-2343.074 -859.337)" fill="none" stroke="#707070" stroke-width="2"/><path d="M2600.367,1016.374" transform="translate(-2336.237 -867.028)" fill="none" stroke="#707070" stroke-width="2"/><path d="M2782.117,809.238c-1.7,1.145-9.86,13.05-9.94,18.147s-3.966,11.353-3.966,11.353,12.428,1.2,13.906-3.142,5.352-4.293,5.352-8.211S2783.814,808.093,2782.117,809.238Z" transform="translate(-2439.396 -740.068)" fill="none" stroke="#707070" stroke-width="2"/><path d="M2441.724,1176.408s-10.374,6.583-15.61,12.194-11.568,10.283-12.548,13.3" transform="translate(-2221.426 -965.773)" fill="none" stroke="#707070" stroke-width="2"/><path d="M2394.665,1159.608s1.193,25.435,0,31.03,16.047,30.529,17.771,30.733,6.784,6.468,8.273.792" transform="translate(-2209.772 -955.447)" fill="none" stroke="#707070" stroke-width="2"/><path d="M2469.723,1191.049s3.779,5.841,1.371,10.97-1.929,6.757-1.371,8.031,4.411,5.229,4.126,9.365-6.03,16.525-6.222,18.822" transform="translate(-2254.652 -974.771)" fill="none" stroke="#707070" stroke-width="2"/><path d="M2118.323,706.335l-8.5,44.271L2066.84,974.58" transform="translate(-2008.323 -676.859)" fill="none" stroke="#707070" stroke-width="2"/><path d="M2158.654,806.028s49.977-13.616,19.855,30.655-34.076,43.385-34.076,43.385" transform="translate(-2056.012 -736.918)" fill="none" stroke="#707070" stroke-width="2"/><path d="M2122.778,1041.017s7.6-14.332,7.466,6.622-15.234,33.316-15.234,33.316" transform="translate(-2037.929 -879.62)" fill="none" stroke="#707070" stroke-width="2"/><path d="M2043.214,1218.68s41.05,52.859,2.046,61.785-29.872-26.223-29.872-26.223" transform="translate(-1976.129 -991.753)" fill="none" stroke="#707070" stroke-width="2"/></g></g></svg>