<svg xmlns="http://www.w3.org/2000/svg" width="374.8" height="101" viewBox="0 0 374.8 101"><path d="M16.9-10.7V-63.8L13.8-64H13a14.287,14.287,0,0,0-8.2,2.3,7.874,7.874,0,0,0-3.4,7A8.333,8.333,0,0,0,2-51.4l-.8.6Q.1-52,.1-54.95A9.081,9.081,0,0,1,2.2-60.6a10.005,10.005,0,0,1,5.4-3.6q.1,0,2.3-.3v-.2l-2.3.1Q-2-65.8-8-70.05T-14-82.3l1.2-.1a13.7,13.7,0,0,0,2.3,7.95A15.537,15.537,0,0,0-4.2-69.2a49.8,49.8,0,0,0,18,4l4.5.3v54.2q0,6-2.2,8.95T8.6,1.2A14.414,14.414,0,0,1,4.1.6l.2-1a18.193,18.193,0,0,0,4,.5q5,0,6.8-2.6T16.9-10.7Zm4,0V-60.5q0-6,2.2-8.95t7.5-2.95a14.414,14.414,0,0,1,4.5.6l-.2,1a18.193,18.193,0,0,0-4-.5q-5,0-6.8,2.6t-1.8,8.2v49.8q0,5.6,1.8,8.2T30.9.1a18.193,18.193,0,0,0,4-.5l.2,1a14.414,14.414,0,0,1-4.5.6q-5.3,0-7.5-2.95T20.9-10.7ZM92.1-41.8v28.6Q92.1.1,100.7.1a7.572,7.572,0,0,0,3.9-.8l.6.7a7.69,7.69,0,0,1-4.8,1.2q-9.6,0-9.6-14.4v-2.2A39.985,39.985,0,0,1,81.85-5.1,41.241,41.241,0,0,1,71.4,1.5a17.468,17.468,0,0,1-7.9-8.6,32.734,32.734,0,0,1-2.6-13.5A36.51,36.51,0,0,1,64.45-36,31.418,31.418,0,0,1,74.6-48.5a32.447,32.447,0,0,1,16.3,4.2,15.793,15.793,0,0,1,3.3-8.5l.9.5A19.43,19.43,0,0,0,92.1-41.8ZM74.9-47.4a31.371,31.371,0,0,0-9.35,12.1A35.531,35.531,0,0,0,62.3-20.75a33.22,33.22,0,0,0,2.3,12.8A15.386,15.386,0,0,0,71.6.1,38.17,38.17,0,0,0,82.05-6.75,36.37,36.37,0,0,0,90.8-17.4V-43.1A31.12,31.12,0,0,0,74.9-47.4Zm74.5,14.3q0-10.6-7.1-14.2-11.5,5.2-18.9,18.1V-6.7q0,6.8,8.6,6.8h1.3l.1,1a22.991,22.991,0,0,1-2.8.1,10.838,10.838,0,0,1-4.8-1.3A5.362,5.362,0,0,1,122.7-4a5.373,5.373,0,0,1-3.05,3.9,12.042,12.042,0,0,1-5.55,1.3,13.528,13.528,0,0,1-4.8-.7l.2-.9a18.193,18.193,0,0,0,4,.5q8.6,0,8.6-6.8V-33.8q0-13.3-8.6-13.3a7.572,7.572,0,0,0-3.9.8L109-47a7.69,7.69,0,0,1,4.8-1.2q9.6,0,9.6,14.4v2.7a40.04,40.04,0,0,1,19-17.4q8.3,3.7,8.3,15.7v1.3a42.212,42.212,0,0,1,8.4-10.25,38.237,38.237,0,0,1,10.4-6.75q8.3,3.7,8.3,15.7v.9L177.3-11v1.4a16.323,16.323,0,0,0,1.35,7.45Q180,.4,184.9.4a7.572,7.572,0,0,0,3.9-.8l.6.7a7.69,7.69,0,0,1-4.8,1.2q-5.4,0-7-2.85T176-9.7V-11l.5-20.9v-1.2q0-10.6-7.1-14.2a38.546,38.546,0,0,0-10.45,7.25A48.124,48.124,0,0,0,150.7-29.6l.2,22.9q0,6.8,8.6,6.8a18.193,18.193,0,0,0,4-.5l.2.9a13.529,13.529,0,0,1-4.8.7,12.042,12.042,0,0,1-5.55-1.3A5.373,5.373,0,0,1,150.3-4a5.362,5.362,0,0,1-3.1,3.9,10.838,10.838,0,0,1-4.8,1.3,22.99,22.99,0,0,1-2.8-.1l.1-1H141q8.6,0,8.6-6.8l-.2-22.4v-4ZM221.8-48q5.6,0,7.4,4.4l.6,2.2.2-.1-.5-2.2-.1-20.1-7.8-.4h-.8a14.287,14.287,0,0,0-8.2,2.3,7.874,7.874,0,0,0-3.4,7,8.333,8.333,0,0,0,.6,3.3l-.8.6q-1.1-1.2-1.1-4.15A9.081,9.081,0,0,1,210-60.8a10.005,10.005,0,0,1,5.4-3.6q.1,0,2.3-.3v-.2l-2.3.1q-9.6-1.2-15.6-5.45t-6-12.25l1.2-.1a13.7,13.7,0,0,0,2.3,7.95,15.537,15.537,0,0,0,6.3,5.25,49.8,49.8,0,0,0,18,4l9.2.5v46.4q0,13.9-4.6,22.5T210,18.4l-.6-1q11.1-5.5,15.55-13.95T229.4-18.5V-37.7q0-9.2-7.9-9.2a8.432,8.432,0,0,0-4,.9l-.5-.8A9.161,9.161,0,0,1,221.8-48Zm11.6,37.3V-60.5q0-6,2.2-8.95t7.5-2.95a14.414,14.414,0,0,1,4.5.6l-.2,1a18.193,18.193,0,0,0-4-.5q-5,0-6.8,2.6t-1.8,8.2v49.8q0,5.6,1.8,8.2T243.4.1a18.193,18.193,0,0,0,4-.5l.2,1a14.414,14.414,0,0,1-4.5.6q-5.3,0-7.5-2.95T233.4-10.7Zm56.5-29.6v27.1Q289.9.1,298.5.1a7.572,7.572,0,0,0,3.9-.8l.6.7a7.69,7.69,0,0,1-4.8,1.2q-9.6,0-9.6-14.4v-2.6a42.07,42.07,0,0,1-8.85,10.35A44.058,44.058,0,0,1,268.9,1.5q-8.3-3.7-8.3-15.7v-.9l.5-20.9v-1.4a16.323,16.323,0,0,0-1.35-7.45q-1.35-2.55-6.25-2.55a7.572,7.572,0,0,0-3.9.8l-.6-.7a7.69,7.69,0,0,1,4.8-1.2q5.4,0,7,2.85t1.6,8.35V-36l-.5,20.9v1.2q0,10.6,7.1,14.2a41.716,41.716,0,0,0,10.95-7.45A46.5,46.5,0,0,0,288.6-17.8V-40.3q0-6.8-8.6-6.8a18.194,18.194,0,0,0-4,.5l-.2-.9a13.528,13.528,0,0,1,4.8-.7,12.042,12.042,0,0,1,5.55,1.3A5.373,5.373,0,0,1,289.2-43a5.362,5.362,0,0,1,3.1-3.9,12.348,12.348,0,0,1,5.6-1.3,13.529,13.529,0,0,1,4.8.7l-.2.9a18.193,18.193,0,0,0-4-.5Q289.9-47.1,289.9-40.3Zm58,7.2q0-10.6-7.1-14.2a41.1,41.1,0,0,0-11.05,7.45A44.339,44.339,0,0,0,321.2-29.2V-6.7q0,6.8,8.6,6.8a18.193,18.193,0,0,0,4-.5l.2.9a13.528,13.528,0,0,1-4.8.7,12.348,12.348,0,0,1-5.6-1.3A5.362,5.362,0,0,1,320.5-4a5.373,5.373,0,0,1-3.05,3.9,12.042,12.042,0,0,1-5.55,1.3,13.529,13.529,0,0,1-4.8-.7l.2-.9a18.193,18.193,0,0,0,4,.5q8.6,0,8.6-6.8V-33.8q0-13.3-8.6-13.3a7.572,7.572,0,0,0-3.9.8l-.6-.7a7.69,7.69,0,0,1,4.8-1.2q9.6,0,9.6,14.4v2.7a39.317,39.317,0,0,1,8.7-10.4,44.89,44.89,0,0,1,11-7q8.3,3.7,8.3,15.7v.9L348.7-11v1.4a16.323,16.323,0,0,0,1.35,7.45Q351.4.4,356.3.4a7.572,7.572,0,0,0,3.9-.8l.6.7A7.69,7.69,0,0,1,356,1.5q-5.4,0-7-2.85T347.4-9.7V-11l.5-20.9Z" transform="translate(14 82.6)" fill="#324d67"/></svg>