<svg xmlns="http://www.w3.org/2000/svg" width="587.5" height="98.9" viewBox="0 0 587.5 98.9"><path d="M16.9-10.7V-63.8L13.8-64H13a14.287,14.287,0,0,0-8.2,2.3,7.874,7.874,0,0,0-3.4,7A8.333,8.333,0,0,0,2-51.4l-.8.6Q.1-52,.1-54.95A9.081,9.081,0,0,1,2.2-60.6a10.005,10.005,0,0,1,5.4-3.6q.1,0,2.3-.3v-.2l-2.3.1Q-2-65.8-8-70.05T-14-82.3l1.2-.1a13.7,13.7,0,0,0,2.3,7.95A15.537,15.537,0,0,0-4.2-69.2a49.8,49.8,0,0,0,18,4l4.5.3v54.2q0,6-2.2,8.95T8.6,1.2A14.414,14.414,0,0,1,4.1.6l.2-1a18.193,18.193,0,0,0,4,.5q5,0,6.8-2.6T16.9-10.7Zm5.4-49.8V-4.2Q30.7.1,37.65.1t9.7-2.2Q50.1-4.3,50.1-9.9a10.384,10.384,0,0,0-.5-3.3l1.1-.5a9.9,9.9,0,0,1,.7,3.8q0,6-3.1,8.6T38.8,1.3A36.837,36.837,0,0,1,20.9-3.4V-60.5q0-6,2.2-8.95t7.5-2.95a14.414,14.414,0,0,1,4.5.6l-.2,1a18.193,18.193,0,0,0-4-.5q-5,0-6.8,2.6T22.3-60.5ZM84.6-41.8v28.6Q84.6.1,93.2.1a7.572,7.572,0,0,0,3.9-.8l.6.7a7.69,7.69,0,0,1-4.8,1.2q-9.6,0-9.6-14.4v-2.2A39.985,39.985,0,0,1,74.35-5.1,41.241,41.241,0,0,1,63.9,1.5,17.468,17.468,0,0,1,56-7.1a32.734,32.734,0,0,1-2.6-13.5A36.51,36.51,0,0,1,56.95-36,31.418,31.418,0,0,1,67.1-48.5a32.447,32.447,0,0,1,16.3,4.2,15.793,15.793,0,0,1,3.3-8.5l.9.5A19.43,19.43,0,0,0,84.6-41.8ZM67.4-47.4a31.371,31.371,0,0,0-9.35,12.1A35.531,35.531,0,0,0,54.8-20.75a33.22,33.22,0,0,0,2.3,12.8A15.386,15.386,0,0,0,64.1.1,38.17,38.17,0,0,0,74.55-6.75,36.37,36.37,0,0,0,83.3-17.4V-43.1A31.12,31.12,0,0,0,67.4-47.4Zm34.3,1.5V-47h9.9l.3-11.5h1.3L112.9-47H129v1.1H112.9l-.6,30.8v.6q0,11.2,7.1,14.8A33.391,33.391,0,0,0,130-7.4l.8.7a33.689,33.689,0,0,1-11.5,8.2Q111-2.2,111-14.2v-.9l.6-30.8ZM153.4,1.5A19.909,19.909,0,0,1,143-7.1a25.887,25.887,0,0,1-3.8-13.8,37.546,37.546,0,0,1,3.3-15.15,34.157,34.157,0,0,1,9-12.45q17.3,0,17.3,11.8a21.042,21.042,0,0,1-1.4,7.5q2.8-.1,6.8-.1v1h-1.9a203.888,203.888,0,0,0-31.4,2.7,42.857,42.857,0,0,0-.3,4.9A24.582,24.582,0,0,0,144-7.95,18.22,18.22,0,0,0,153.6.1a33.706,33.706,0,0,0,7.5-4.35,30.644,30.644,0,0,0,6.2-6.05l.9.6a34.2,34.2,0,0,1-6.65,6.45A35.287,35.287,0,0,1,153.4,1.5Zm14.1-38.2q0-10.7-15.6-10.7-8.5,7.3-10.8,20.6a210.523,210.523,0,0,1,25.2-2.4A25.474,25.474,0,0,0,167.5-36.7Zm17,2.3q0,2.5,3.7,5.1a42.479,42.479,0,0,0,8.15,4.45,38.139,38.139,0,0,1,8.15,4.6q3.7,2.75,3.7,5.65,0,4.6-4,9A32.739,32.739,0,0,1,195,1.5a27.3,27.3,0,0,1-14.4-4.2l.6-.9q7.3,4,13.6,4a29.441,29.441,0,0,0,8.45-6.6q3.65-4.1,3.65-8.4,0-2.5-3.7-5.1a42.48,42.48,0,0,0-8.15-4.45,38.139,38.139,0,0,1-8.15-4.6q-3.7-2.75-3.7-6.2t3.75-7.5a26.4,26.4,0,0,1,7.95-6.05A26.076,26.076,0,0,1,208.1-45l-.6.9a25.232,25.232,0,0,0-12.3-3.3,24.678,24.678,0,0,0-7.35,5.75Q184.5-37.9,184.5-34.4ZM217-45.9V-47h9.9l.3-11.5h1.3L228.2-47h16.1v1.1H228.2l-.6,30.8v.6q0,11.2,7.1,14.8a33.391,33.391,0,0,0,10.6-7.7l.8.7a33.689,33.689,0,0,1-11.5,8.2q-8.3-3.7-8.3-15.7v-.9l.6-30.8ZM318-25.3l-21-.1L292.5-8.5A97.051,97.051,0,0,1,289.6.9a45.893,45.893,0,0,1-3.7,7.5Q281.1,16,271.7,16V14.8q7.5,0,11.7-5.05T290.1-4.1l1-2.1-.2-.1q-3.4,7.6-10.8,7.6A10.8,10.8,0,0,1,272-2a11.442,11.442,0,0,1-3.2-8.3q0-16.3,27.2-16.3l10-37.8-3.1-.1h-.8a14.456,14.456,0,0,0-8.9,2.55,8.03,8.03,0,0,0-3.4,6.75,7.893,7.893,0,0,0,.6,3.3l-.8.6q-1.1-1.2-1.1-4.15a8.88,8.88,0,0,1,2.1-5.6A10.108,10.108,0,0,1,296-64.6q.9-.2,2.3-.4v-.2l-2.3.1q-9.6-1.2-15.6-5.45t-6-12.25l1.2-.1a13.7,13.7,0,0,0,2.3,7.95,15.537,15.537,0,0,0,6.3,5.25,45.892,45.892,0,0,0,18,4l17.2.8v54.2q0,6-2.2,8.95T309.7,1.2a14.414,14.414,0,0,1-4.5-.6l.2-1a18.193,18.193,0,0,0,4,.5q5,0,6.8-2.6t1.8-8.2Zm-15.9-1.3,15.9.1V-63.8l-10.7-.5-10,37.7ZM270.2-10.3A10.436,10.436,0,0,0,273-2.9a9.291,9.291,0,0,0,7.1,3q6.9,0,10.2-7.3a56.085,56.085,0,0,0,3.1-9.6l2.3-8.6Q270.2-25.2,270.2-10.3Zm51.8-.4V-60.5q0-6,2.2-8.95t7.5-2.95a14.414,14.414,0,0,1,4.5.6l-.2,1a18.193,18.193,0,0,0-4-.5q-5,0-6.8,2.6t-1.8,8.2v49.8q0,5.6,1.8,8.2T332,.1a18.193,18.193,0,0,0,4-.5l.2,1a14.414,14.414,0,0,1-4.5.6q-5.3,0-7.5-2.95T322-10.7Zm32.3,4q0,6.8,8.6,6.8a18.193,18.193,0,0,0,4-.5l.2.9a13.528,13.528,0,0,1-4.8.7,12.348,12.348,0,0,1-5.6-1.3A5.362,5.362,0,0,1,353.6-4a5.373,5.373,0,0,1-3.05,3.9A12.042,12.042,0,0,1,345,1.2a13.529,13.529,0,0,1-4.8-.7l.2-.9a18.193,18.193,0,0,0,4,.5q8.6,0,8.6-6.8V-33.8q0-13.3-8.6-13.3a7.572,7.572,0,0,0-3.9.8l-.6-.7a7.69,7.69,0,0,1,4.8-1.2q9.6,0,9.6,14.4v2.4q5.5-13,15.9-17.1,3.6,4.1,3.6,12.3v.9h-1.3v-1q0-7.1-2.8-10.8a23.026,23.026,0,0,0-8.75,6.85A63.425,63.425,0,0,0,354.3-29Zm24.2-39.2V-47h9.9l.3-11.5H390L389.7-47h16.1v1.1H389.7l-.6,30.8v.6q0,11.2,7.1,14.8a33.391,33.391,0,0,0,10.6-7.7l.8.7a33.689,33.689,0,0,1-11.5,8.2q-8.3-3.7-8.3-15.7v-.9l.6-30.8ZM419-10.7V-47h1.3v36q0,3.3.15,4.95a11.211,11.211,0,0,0,.9,3.4,4.29,4.29,0,0,0,2.3,2.4,11.1,11.1,0,0,0,4.2.65,7.7,7.7,0,0,0,3.95-.8l.6.7a7.69,7.69,0,0,1-4.8,1.2q-5.4,0-7-2.8T419-10.7Zm2.8-53.7a2.389,2.389,0,0,1-.6,1.6,2,2,0,0,1-1.6.7,2,2,0,0,1-1.6-.7,2.389,2.389,0,0,1-.6-1.6,1.945,1.945,0,0,1,2.2-2.2A1.945,1.945,0,0,1,421.8-64.4Zm31.1,17a31.191,31.191,0,0,0-8.35,11.85,37.715,37.715,0,0,0-2.95,14.5A25.246,25.246,0,0,0,445-7.95,18.22,18.22,0,0,0,454.6.1a33.705,33.705,0,0,0,7.5-4.35,30.645,30.645,0,0,0,6.2-6.05l.9.6a34.2,34.2,0,0,1-6.65,6.45A35.288,35.288,0,0,1,454.4,1.5,19.909,19.909,0,0,1,444-7.1a25.887,25.887,0,0,1-3.8-13.8,37.546,37.546,0,0,1,3.3-15.15,34.157,34.157,0,0,1,9-12.45,32.255,32.255,0,0,1,16.2,4.2l-.5.9A31.78,31.78,0,0,0,452.9-47.4Zm31.8,1.8V-11q0,3.3.15,4.95a11.211,11.211,0,0,0,.9,3.4,4.29,4.29,0,0,0,2.3,2.4,11.1,11.1,0,0,0,4.2.65,7.7,7.7,0,0,0,3.95-.8l.6.7A7.69,7.69,0,0,1,492,1.5q-5.4,0-7-2.8t-1.6-9.4V-45.2q0-27.7,17.9-27.7v1Q484.7-71.9,484.7-45.6Zm34,47.1a19.909,19.909,0,0,1-10.4-8.6,25.887,25.887,0,0,1-3.8-13.8,37.546,37.546,0,0,1,3.3-15.15,34.157,34.157,0,0,1,9-12.45q17.3,0,17.3,11.8a21.043,21.043,0,0,1-1.4,7.5q2.8-.1,6.8-.1v1h-1.9a203.889,203.889,0,0,0-31.4,2.7,42.854,42.854,0,0,0-.3,4.9,24.582,24.582,0,0,0,3.4,12.75A18.221,18.221,0,0,0,518.9.1a33.708,33.708,0,0,0,7.5-4.35,30.643,30.643,0,0,0,6.2-6.05l.9.6a34.2,34.2,0,0,1-6.65,6.45A35.286,35.286,0,0,1,518.7,1.5Zm14.1-38.2q0-10.7-15.6-10.7-8.5,7.3-10.8,20.6a210.522,210.522,0,0,1,25.2-2.4A25.475,25.475,0,0,0,532.8-36.7Zm17,2.3q0,2.5,3.7,5.1a42.479,42.479,0,0,0,8.15,4.45,38.139,38.139,0,0,1,8.15,4.6q3.7,2.75,3.7,5.65,0,4.6-4,9a32.74,32.74,0,0,1-9.2,7.1,27.3,27.3,0,0,1-14.4-4.2l.6-.9q7.3,4,13.6,4a29.441,29.441,0,0,0,8.45-6.6q3.65-4.1,3.65-8.4,0-2.5-3.7-5.1a42.477,42.477,0,0,0-8.15-4.45,38.139,38.139,0,0,1-8.15-4.6q-3.7-2.75-3.7-6.2t3.75-7.5a26.4,26.4,0,0,1,7.95-6.05A26.076,26.076,0,0,1,573.4-45l-.6.9a25.232,25.232,0,0,0-12.3-3.3,24.678,24.678,0,0,0-7.35,5.75Q549.8-37.9,549.8-34.4Z" transform="translate(14 82.9)" fill="#324d67"/></svg>