<svg xmlns="http://www.w3.org/2000/svg" width="1280.042" height="153.176" viewBox="0 0 1280.042 153.176">
  <path id="Subtraction_1" data-name="Subtraction 1" d="M1304.032,243.677l0,0h0c-.189-.1-16.38-8.8-43.41-21.464-15.935-7.465-32.5-14.845-49.224-21.934-20.907-8.86-42.133-17.287-63.088-25.048-8.279-3.066-16.785-6.327-25.011-9.481-24.664-9.455-50.166-19.232-76.566-26.624a358.048,358.048,0,0,0-40.36-8.994c-7.009-1.119-14-1.979-20.788-2.556-7.131-.607-14.272-.921-21.226-.935l-1.752,0c-.911,0-1.714,0-2.422,0-5.2,0-5.394.118-6.945,1.038-1.52.9-4.348,2.58-14.38,5.682-12.277,3.8-31.66,8.586-57.611,14.235C784.025,168.746,572.03,212.06,569.9,212.5c-.135.064-13.694,6.531-31.9,12.867a282.027,282.027,0,0,1-30.525,8.856,148.843,148.843,0,0,1-31.922,4.046h-.359c-43.935,0-64.587-9.4-98.8-24.969-22.835-10.392-51.253-23.326-96.479-38.068C167.87,138.71,25.415,91.372,23.989,90.9v-.4H1303.958l.073,153.175Z" transform="translate(-23.989 -90.5)" fill="#e2edee"/>
</svg>
