<svg xmlns="http://www.w3.org/2000/svg" width="1280.008" height="129.101" viewBox="0 0 1280.008 129.101">
  <path id="Subtraction_2" data-name="Subtraction 2" d="M1349,508.6h0l-137.778-44.824a454.835,454.835,0,0,0-36.953-33.2,244.914,244.914,0,0,0-33.133-22.822c-12.411-6.883-22.94-10.374-31.3-10.374a240,240,0,0,0-40.539,3.644,324.1,324.1,0,0,0-39.757,9.607,461.985,461.985,0,0,0-71.469,29.153,584.874,584.874,0,0,0-51.241,29.153c-12.085,7.722-19.31,13.028-19.612,13.25-.168.027-16.831,2.571-39.376,5.116-13.178,1.488-25.706,2.676-37.235,3.533-14.409,1.071-27.289,1.624-38.282,1.642h-1.946c-23.142,0-42.8-.7-60.085-2.134a337.367,337.367,0,0,1-42.258-5.93c-23.84-5.061-40.614-12.172-60.037-20.406-17.982-7.624-38.361-16.264-68.718-25.074-44.8-13-64.308-25.666-79.984-35.841-17.976-11.668-30.964-20.1-71.257-22.152-1.9-.1-3.92-.146-6.005-.146a226.908,226.908,0,0,0-31.409,2.591c-9.611,1.376-20.161,3.293-31.358,5.7-19.122,4.11-33.592,8.25-33.736,8.291L68.994,429.252l0-49.752H1349V508.6Z" transform="translate(-68.992 -379.5)" fill="#f5f4f4"/>
</svg>
