<svg xmlns="http://www.w3.org/2000/svg" width="1274.5" height="116.604" viewBox="0 0 1274.5 116.604">
  <path id="Subtraction_18" data-name="Subtraction 18" d="M395.094,241.1h0c-15.408,0-32.341-2.6-50.331-7.714A304.387,304.387,0,0,1,299.9,216.419c-13.661-6.364-25.051-12.741-32.2-16.97-7.59-4.49-12.284-7.68-12.331-7.711l-.025-.013c-2.5-1.17-25.333-11.775-55.351-23.856-18.575-7.474-36.23-14.046-52.474-19.534A512.5,512.5,0,0,0,93.4,132.882a65.108,65.108,0,0,0-13.951-1.41c-5.005,0-9.854.454-14.133.854h-.006l-.018,0-.018,0h-.006l-.032,0-.393.037-.031,0c-4.508.423-8.765.823-13.078.823a54.561,54.561,0,0,1-6.037-.313A328.807,328.807,0,0,0,9.9,130.658c-3.426,0-6.757.081-9.9.24v-6.4H1274.5V215.04c-12.8-2.211-45.715-6.077-97.835-11.49-47.832-4.967-111.841-11.242-190.249-18.652-133.572-12.623-264.889-24.368-265.91-24.458h-.016c-1.417.1-14.428.993-34.593,2.857-19.143,1.77-48.323,4.763-78.627,8.969-34.079,4.731-62.624,10-84.842,15.671a243.312,243.312,0,0,0-32.936,10.531c-9.525,3.984-16.359,8.165-20.314,12.428A93.275,93.275,0,0,1,452.7,225.009a90.5,90.5,0,0,1-18.148,9.339,101.082,101.082,0,0,1-19.359,5.166A123.451,123.451,0,0,1,395.094,241.1Z" transform="translate(0 -124.5)" fill="#e2edee"/>
</svg>
