<svg xmlns="http://www.w3.org/2000/svg" width="1277.002" height="126.285" viewBox="0 0 1277.002 126.285">
  <path id="Subtraction_22" data-name="Subtraction 22" d="M307.767,243.786c-16.441,0-35.471-.767-56.561-2.281-16.821-1.208-35.038-2.9-54.146-5.022-31.714-3.528-55.637-7.146-56.64-7.3L50.5,183.633V117.5h1277V217.746c-18.916-2.347-38.5-5.09-59.859-8.384-67.961-10.48-137.761-24.156-205.263-37.381l-.012,0-.034-.007-.012,0-.021,0-.036-.008-.017,0-.007,0-.016,0c-61.46-12.042-119.511-23.416-172.766-31.759-11.72-1.836-24.8-5.887-37.456-9.8l-.018-.005-.056-.018-.007,0-.044-.014c-14.85-4.6-28.875-8.941-40.5-9.848-3.894-.3-8.411-.457-13.427-.457-8.047,0-22.03.414-42.942,2.386-11.257,1.063-20.062,2.17-21.713,2.381l-.032,0-158.323,72.3-.007,0-.023.006-.016,0-.032.009-.073.019c-2.819.751-13.229,3.5-28.842,7.347-16.155,3.982-41.331,9.982-69.523,15.952-31.969,6.771-61.394,12.17-87.457,16.046C356.419,241.332,329.1,243.786,307.767,243.786Z" transform="translate(-50.5 -117.5)" fill="#e2edee"/>
</svg>
