<svg xmlns="http://www.w3.org/2000/svg" width="1280.14" height="162.606" viewBox="0 0 1280.14 162.606">
  <path id="Subtraction_4" data-name="Subtraction 4" d="M372.863,236.106h-.022a28.351,28.351,0,0,1-8.419-1.731,106.974,106.974,0,0,1-11.765-4.883c-8.34-3.962-18.691-9.66-31.645-17.417-24.053-14.4-53.635-33.892-82.243-52.741l-.01-.007-.03-.02-.008-.005c-27.864-18.359-56.676-37.342-80.187-51.489-12.643-7.609-22.8-13.259-31.052-17.273a119.465,119.465,0,0,0-11.7-5.047,33.965,33.965,0,0,0-8.557-2.1c-.881-.062-1.781-.094-2.676-.094-8.223,0-17.055,2.623-26.25,7.8a116.666,116.666,0,0,0-22.6,17.152,184.109,184.109,0,0,0-15.84,17.153c-3.57,4.385-5.733,7.456-5.968,7.791l0,.006-.025-59.7H1314V88.166c-10.4,4.865-26.791,13.962-48.708,27.039-17.506,10.446-38.6,23.464-62.685,38.692-40.706,25.735-75.711,48.767-77.181,49.735-.274.051-27.766,5.069-41.765,5.245-.408.005-.839.008-1.281.008a143.213,143.213,0,0,1-31.541-3.952,262.341,262.341,0,0,1-33.8-10.419c-20.2-7.627-42.538-18.264-66.387-31.615-11.717-6.56-30.164-17.37-51.512-31.616-12.264-8.183-19.871-13.753-20.7-14.361l-.012-.009c-.638-.414-15.826-10.262-34.1-20.119a299.64,299.64,0,0,0-29.179-14.019c-10.595-4.286-19.113-6.562-25.318-6.763-.179-.006-.38-.009-.6-.009-4.591,0-13.011,1.548-25.027,4.6-9.613,2.442-21.536,5.849-35.437,10.124-23.415,7.2-44.482,14.421-45.367,14.724L414.059,222.3c-.079.031-8.717,3.414-18.241,6.861-15.7,5.682-21.048,6.911-22.768,6.942Z" transform="translate(-33.861 -73.5)" fill="#fff"/>
</svg>
