<svg xmlns="http://www.w3.org/2000/svg" width="199.4" height="74.5" viewBox="0 0 199.4 74.5"><path d="M41-25.9a5.8,5.8,0,0,0-2.8-4.8q-2.8-2-10.6-4.9a69.1,69.1,0,0,1-12.7-6Q10-44.7,10-49.05t4.9-9.8a33.4,33.4,0,0,1,9.5-7.75,35.907,35.907,0,0,1,17.8,4.7l-.6,1a35.3,35.3,0,0,0-16.8-4.5l-1.4.8a35.765,35.765,0,0,0-8.2,7.35q-3.8,4.55-3.8,8.3t4.95,6.75a75.22,75.22,0,0,0,12.4,5.8,50.115,50.115,0,0,1,10.55,5,6.544,6.544,0,0,1,3.1,5.5,7.527,7.527,0,0,1-1.1,3.8,7.665,7.665,0,0,1,.3,2q0,5.3-4.75,12.25T27.2,1.4q-21.4,0-21.4-12a9.661,9.661,0,0,1,2.15-6.45,6.977,6.977,0,0,1,5.6-2.55A7.263,7.263,0,0,1,19-17.55a7.336,7.336,0,0,1,2,5.35,6.2,6.2,0,0,1-.5,2.4l-1.1-.4a6.929,6.929,0,0,0,.3-2,6.186,6.186,0,0,0-1.65-4.5,6.046,6.046,0,0,0-4.55-1.7,5.507,5.507,0,0,0-4.6,2.2,8.727,8.727,0,0,0-1.7,5.5A9.129,9.129,0,0,0,8.85-5.15,9.718,9.718,0,0,0,13.6-1.8,39.271,39.271,0,0,0,26.8.2q4.9-2.4,9.15-8.85T40.2-19.6q0-4.5-4.9-7.4a78.712,78.712,0,0,0-12.4-5.7q-7.5-2.8-10.4-5a12.2,12.2,0,0,1-3.9-4.4l1-.7a13.1,13.1,0,0,0,3.9,4.4,43.292,43.292,0,0,0,8.7,4.1,121.187,121.187,0,0,1,11.45,5q5.15,2.6,6.95,5.7A6.678,6.678,0,0,0,41-25.9Zm21.9,19V-51.7q0-8.3,1.15-12.45a12.593,12.593,0,0,1,3.3-6.1A12.269,12.269,0,0,1,72.9-73l.2,1a10.326,10.326,0,0,0-7.7,7.8,53.112,53.112,0,0,0-1.2,12.5v20.6q7.1-12.3,18.7-17.4a10.469,10.469,0,0,1,6.15,4.75A15.611,15.611,0,0,1,91.2-35.5a11.511,11.511,0,0,1-3.15,8.1A17.836,17.836,0,0,1,80-22.5L85.9-5.8a11.158,11.158,0,0,0,2.9,4.75A6.855,6.855,0,0,0,93.4.4a8.332,8.332,0,0,0,4.2-.8l.6.7q-1.5,1.2-4.85,1.2A8.319,8.319,0,0,1,88-.1a10.852,10.852,0,0,1-3.2-5.1l-6.1-17a23.048,23.048,0,0,1-5.8.7v-1.1a20.452,20.452,0,0,0,11.95-3.5,10.979,10.979,0,0,0,5.05-9.5,14.631,14.631,0,0,0-1.8-7.3,9.367,9.367,0,0,0-5.3-4.4q-11.1,5-18.6,18.1V-6.9q0,6.8,8.6,6.8a18.193,18.193,0,0,0,4-.5l.2.9a13.529,13.529,0,0,1-4.8.7A12.348,12.348,0,0,1,66.6-.3a5.362,5.362,0,0,1-3.1-3.9A5.373,5.373,0,0,1,60.45-.3,12.042,12.042,0,0,1,54.9,1,13.529,13.529,0,0,1,50.1.3l.2-.9a18.193,18.193,0,0,0,4,.5Q62.9-.1,62.9-6.9Zm47.4-3.8V-47h1.3v36q0,3.3.15,4.95a11.211,11.211,0,0,0,.9,3.4,4.29,4.29,0,0,0,2.3,2.4,11.1,11.1,0,0,0,4.2.65,7.7,7.7,0,0,0,3.95-.8l.6.7a7.69,7.69,0,0,1-4.8,1.2q-5.4,0-7-2.8T110.3-10.7Zm2.8-53.7a2.389,2.389,0,0,1-.6,1.6,2,2,0,0,1-1.6.7,2,2,0,0,1-1.6-.7,2.389,2.389,0,0,1-.6-1.6,1.945,1.945,0,0,1,2.2-2.2A1.945,1.945,0,0,1,113.1-64.4Zm22.6,18.8V-11q0,3.3.15,4.95a11.211,11.211,0,0,0,.9,3.4,4.29,4.29,0,0,0,2.3,2.4,11.1,11.1,0,0,0,4.2.65,7.7,7.7,0,0,0,3.95-.8l.6.7A7.69,7.69,0,0,1,143,1.5q-5.4,0-7-2.8t-1.6-9.4V-45.2q0-27.7,17.9-27.7v1Q135.7-71.9,135.7-45.6Zm24.1,0V-11q0,3.3.15,4.95a11.211,11.211,0,0,0,.9,3.4,4.29,4.29,0,0,0,2.3,2.4,11.1,11.1,0,0,0,4.2.65,7.7,7.7,0,0,0,3.95-.8l.6.7a7.69,7.69,0,0,1-4.8,1.2q-5.4,0-7-2.8t-1.6-9.4V-45.2q0-27.7,17.9-27.7v1Q159.8-71.9,159.8-45.6Zm21.7,11.2q0,2.5,3.7,5.1a42.479,42.479,0,0,0,8.15,4.45,38.139,38.139,0,0,1,8.15,4.6q3.7,2.75,3.7,5.65,0,4.6-4,9A32.739,32.739,0,0,1,192,1.5a27.3,27.3,0,0,1-14.4-4.2l.6-.9q7.3,4,13.6,4a29.441,29.441,0,0,0,8.45-6.6q3.65-4.1,3.65-8.4,0-2.5-3.7-5.1a42.48,42.48,0,0,0-8.15-4.45,38.139,38.139,0,0,1-8.15-4.6q-3.7-2.75-3.7-6.2t3.75-7.5a26.4,26.4,0,0,1,7.95-6.05A26.076,26.076,0,0,1,205.1-45l-.6.9a25.232,25.232,0,0,0-12.3-3.3,24.678,24.678,0,0,0-7.35,5.75Q181.5-37.9,181.5-34.4Z" transform="translate(-5.8 73)" fill="#324d67"/></svg>