<svg xmlns="http://www.w3.org/2000/svg" width="59.229" height="35.297" viewBox="0 0 59.229 35.297">
  <path id="Path_99" data-name="Path 99" d="M8542.536,1440.324s5.354.6,5.534.074a5.792,5.792,0,0,1-.586-1.181,13.871,13.871,0,0,1,2.141-4.506c1.18-1.316,2.1-1.926,2.3-3.968.018-.707-2.908,2.271-3.589,3.527s-.947.131-.947.131a4.458,4.458,0,0,1,.228-.7c.133-.284,3.758-3.811,3.857-4.324a12.777,12.777,0,0,0,3.039-2.487,33.2,33.2,0,0,0-.275,4,5.884,5.884,0,0,1-.1,2.515c-.261.883-.894,1.671-.842,2.749s.31,3.754-.795,3.543-.937-1.5-.937-1.5,2.762-3.159,3.127-3.487a3.459,3.459,0,0,0,.938-2.791c0-1.745-.9-2.649.26-4.49s2.018-4.164,1.9-4.681-.576,1.4-.572,1.563a10.415,10.415,0,0,0-.229,3.044c.183,1.408,1.538,5.085,2.381,5.406a5.225,5.225,0,0,1,2.032,2.616,5.585,5.585,0,0,1,.129,1.58s.2-1.158.253-1.58c1.009,0,2.6-1.612,2.5-2.506a9.847,9.847,0,0,0-1.556-3.494c-.521-.61-2.649-3.354-3.534-3.636s5.086,5.144,5.471,5.151.663.729,1.836.717,1.895.075,1.848-.536a3.122,3.122,0,0,0-.906-2.072c-.613-.492-6.088-3.786-6.4-4.088a49.19,49.19,0,0,1-3.256-4.58c-.2-.529-2.4,3.831-2.9,4.464s-6.438,4.369-7.272,5.836-2.9,4.4-.531,9.614,4.723,5.568,4.837,5.568,8.6,1.725,9.192,2.342.048.26.048.26a9.889,9.889,0,0,1-1.625-3.614c-.206-1.646.16-4.641,1.253-6.013s8.543-6.889,8.721-7.35,2.1-3.374,1.557-4.677-.271,1.111-.271,1.111,2.57,5.552,4.2,5.793,6.385,3.186,7.619,5.458,2.6,8.93.717,11.51-11,3.863-13.6,3.5-7.1-2.693-8.211-5.42-.791-6.325,1.346-8.438,5.348-4.192,5.491-4.621.606-1.112.534-1.381-.334.081-.334.081a16.712,16.712,0,0,1-.295,2.858c-.221.559-2.732,5.147-3.047,6.159s-1.539,3.251-.115,3.314.8-1.375.8-1.375a9.151,9.151,0,0,1,.475-2.6,38.015,38.015,0,0,0,2.521-4.185c.128-.65,1.824-3.711,2.09-5.327a11.088,11.088,0,0,0,.386-2.261c-.081-.349-.386.136-.386.136s.228,3.774,1.314,5.761a11.835,11.835,0,0,1,1.208,5.323c-.036.725-.661,1.95-.231,3.15s.545,2.62,1.479,2.653-.176-3.913-1.014-5.012a8.645,8.645,0,0,1-1.346-3.317,15.388,15.388,0,0,1,0-3.454,3.988,3.988,0,0,0,.439-1.587,11.384,11.384,0,0,0,0-1.575,23.486,23.486,0,0,0,2.27,3.162c.868.808,2.029,1.554,2.427,2.04s2.146,3.207,2.491,3.734,1.2,1.824,1.055,2.382-.139.466-.373.418a2.579,2.579,0,0,1-1.041-.835c-.145-.277-1.948-3.5-2.132-3.808s-.577-.652-.742-.985a7,7,0,0,1-.7-1.914c-.027-.534-.091-.98.147-1.031s.61-.136,1.483.474a17.5,17.5,0,0,1,2.982,2.979c.159.37,1.6,2.843,1.807,3.464a15.521,15.521,0,0,1,.434,3.32c-.047.51-.057.964-.637,1s-.607-.148-.607-.148a15.722,15.722,0,0,1,2.447-.276c1.283-.035,4.682-.119,6.664-1.684s3.629-1.972,4.02-3.472,1.311-4.2,1.039-6.682-1.619-4.694-2.646-5.357-2.74-1.626-3.309-1.894-2.718-1.086-3.228-1.721-2.87-2.953-3.708-5.481-1.127,1.887-1.6,2.258-1.823,2.59-3.463,3.222c-1.557.932-2.62,1.8-3.264,2.026s-1.5.082-1.478,1.419-.255,2.052.834,2.135a6.9,6.9,0,0,0,4-1.8c.422-.661,2.669-3.512,2.727-3.921s-.377,1.012-.377,1.012a8.737,8.737,0,0,1-.216,2.689c-.343,1.146-1.759,3.1-1.759,4.224s2.943-3.418,3.094-4.076,1.646-5.243,1.557-6.137a26.8,26.8,0,0,0,.924,4.824c.717,2.074,2.313,6.086,2.445,7.6s-.827,4.969-.371,5.463a1.013,1.013,0,0,0,1.679-.5c.446-.707.7-.306.661-2.229s-.193-1.447-.318-1.948-4.01-8.637-3.957-10.485c0-.566.692,1.21,1.422,1.893s4.638,3.772,5.34,4.825,1.1,1.1,1.1,2.606-.088,3.534.52,3.828,1.35-1.994,1.3-2.8a9.368,9.368,0,0,0-1.444-3.45,14.29,14.29,0,0,0-1.975-2.729c-.652-.484-3.147-2.328-3.141-2.425a21.9,21.9,0,0,1,5.412,2.286,3.4,3.4,0,0,1,1.7,2.531c.07.44.393,4.456.346,5.4s.028,2.449-.415,2.8-.24-.253-.24-.253,6-.218,6.64-.169" transform="translate(-8541.983 -1419.422)" fill="none" stroke="#707070" stroke-linecap="round" stroke-width="1"/>
</svg>
